<?xml version="1.0" encoding="utf-8"?>
<!-- Generator: Adobe Illustrator 19.0.0, SVG Export Plug-In . SVG Version: 6.00 Build 0)  -->
<svg xmlns="http://www.w3.org/2000/svg" xmlns:xlink="http://www.w3.org/1999/xlink" version="1.1" id="Layer_1" x="0px" y="0px" viewBox="0 2 98 98" style="enable-background:new 0 2 98 98;" xml:space="preserve" width="512" height="512">
<style type="text/css">
	.st0{fill:url(#SVGID_1_);}
	.st1{fill:url(#SVGID_2_);}
	.st2{fill:url(#SVGID_3_);}
	.st3{fill:url(#SVGID_4_);}
	.st4{fill:url(#SVGID_5_);}
	.st5{fill:url(#SVGID_6_);}
	.st6{fill:url(#SVGID_7_);}
	.st7{fill:url(#SVGID_8_);}
	.st8{fill:url(#SVGID_9_);}
	.st9{fill:url(#SVGID_10_);}
</style>
<g>
	<linearGradient id="SVGID_1_" gradientUnits="userSpaceOnUse" x1="44.3" y1="39.2002" x2="44.3" y2="62.7998">
		<stop offset="0" style="stop-color:#00EFD1"/>
		<stop offset="1" style="stop-color:#00ACEA"/>
	</linearGradient>
	<path class="st0" d="M44.3,39.2c-1.7,0-3,1.3-3,3v17.6c0,1.7,1.3,3,3,3s3-1.3,3-3V42.2C47.3,40.5,46,39.2,44.3,39.2z"/>
	<linearGradient id="SVGID_2_" gradientUnits="userSpaceOnUse" x1="35.0002" y1="29.8999" x2="35.0002" y2="72.0996">
		<stop offset="0" style="stop-color:#00EFD1"/>
		<stop offset="1" style="stop-color:#00ACEA"/>
	</linearGradient>
	<path class="st1" d="M35,29.9c-1.7,0-3,1.3-3,3v36.2c0,1.7,1.3,3,3,3s3-1.3,3-3V32.9C38,31.2,36.7,29.9,35,29.9z"/>
	<linearGradient id="SVGID_3_" gradientUnits="userSpaceOnUse" x1="25.6003" y1="21.2002" x2="25.6003" y2="80.7998">
		<stop offset="0" style="stop-color:#00EFD1"/>
		<stop offset="1" style="stop-color:#00ACEA"/>
	</linearGradient>
	<path class="st2" d="M25.6,21.2c-1.7,0-3,1.3-3,3v53.6c0,1.7,1.3,3,3,3s3-1.3,3-3V24.2C28.6,22.5,27.3,21.2,25.6,21.2z"/>
	<linearGradient id="SVGID_4_" gradientUnits="userSpaceOnUse" x1="16.3" y1="29.8999" x2="16.3" y2="72.0996">
		<stop offset="0" style="stop-color:#00EFD1"/>
		<stop offset="1" style="stop-color:#00ACEA"/>
	</linearGradient>
	<path class="st3" d="M16.3,29.9c-1.7,0-3,1.3-3,3v36.2c0,1.7,1.3,3,3,3s3-1.3,3-3V32.9C19.3,31.2,18,29.9,16.3,29.9z"/>
	<linearGradient id="SVGID_5_" gradientUnits="userSpaceOnUse" x1="6.9001" y1="38.6001" x2="6.9001" y2="63.4004">
		<stop offset="0" style="stop-color:#00EFD1"/>
		<stop offset="1" style="stop-color:#00ACEA"/>
	</linearGradient>
	<path class="st4" d="M6.9,38.6c-1.7,0-3,1.3-3,3v18.8c0,1.7,1.3,3,3,3s3-1.3,3-3V41.6C9.9,39.9,8.6,38.6,6.9,38.6z"/>
	<linearGradient id="SVGID_6_" gradientUnits="userSpaceOnUse" x1="72.4006" y1="21.2002" x2="72.4006" y2="80.7998">
		<stop offset="0" style="stop-color:#00EFD1"/>
		<stop offset="1" style="stop-color:#00ACEA"/>
	</linearGradient>
	<path class="st5" d="M72.4,21.2c-1.7,0-3,1.3-3,3v53.6c0,1.7,1.3,3,3,3s3-1.3,3-3V24.2C75.4,22.5,74.1,21.2,72.4,21.2z"/>
	<linearGradient id="SVGID_7_" gradientUnits="userSpaceOnUse" x1="63.0002" y1="29.8999" x2="63.0002" y2="72.0996">
		<stop offset="0" style="stop-color:#00EFD1"/>
		<stop offset="1" style="stop-color:#00ACEA"/>
	</linearGradient>
	<path class="st6" d="M63,29.9c-1.7,0-3,1.3-3,3v36.2c0,1.7,1.3,3,3,3s3-1.3,3-3V32.9C66,31.2,64.7,29.9,63,29.9z"/>
	<linearGradient id="SVGID_8_" gradientUnits="userSpaceOnUse" x1="53.7004" y1="34.6001" x2="53.7004" y2="67.4004">
		<stop offset="0" style="stop-color:#00EFD1"/>
		<stop offset="1" style="stop-color:#00ACEA"/>
	</linearGradient>
	<path class="st7" d="M53.7,34.6c-1.7,0-3,1.3-3,3v26.8c0,1.7,1.3,3,3,3s3-1.3,3-3V37.6C56.7,35.9,55.4,34.6,53.7,34.6z"/>
	<linearGradient id="SVGID_9_" gradientUnits="userSpaceOnUse" x1="81.7004" y1="29.8999" x2="81.7004" y2="72.0996">
		<stop offset="0" style="stop-color:#00EFD1"/>
		<stop offset="1" style="stop-color:#00ACEA"/>
	</linearGradient>
	<path class="st8" d="M81.7,29.9c-1.7,0-3,1.3-3,3v36.2c0,1.7,1.3,3,3,3s3-1.3,3-3V32.9C84.7,31.2,83.4,29.9,81.7,29.9z"/>
	<linearGradient id="SVGID_10_" gradientUnits="userSpaceOnUse" x1="91.0999" y1="38.6001" x2="91.0999" y2="63.4004">
		<stop offset="0" style="stop-color:#00EFD1"/>
		<stop offset="1" style="stop-color:#00ACEA"/>
	</linearGradient>
	<path class="st9" d="M91.1,38.6c-1.7,0-3,1.3-3,3v18.8c0,1.7,1.3,3,3,3s3-1.3,3-3V41.6C94.1,39.9,92.8,38.6,91.1,38.6z"/>
</g>

</svg>
